<?xml version="1.0" standalone="no"?>
<!DOCTYPE svg PUBLIC "-//W3C//DTD SVG 20010904//EN"
 "http://www.w3.org/TR/2001/REC-SVG-20010904/DTD/svg10.dtd">
<svg version="1.0" xmlns="http://www.w3.org/2000/svg"
 width="950.000000pt" height="950.000000pt" viewBox="0 0 950.000000 950.000000"
 preserveAspectRatio="xMidYMid meet">
<metadata>
Created by potrace 1.11, written by Peter Selinger 2001-2013
</metadata>
<g transform="translate(0.000000,950.000000) scale(0.100000,-0.100000)"
fill="#000000" stroke="none">
<path d="M0 4750 l0 -4750 4750 0 4750 0 0 4750 0 4750 -4750 0 -4750 0 0
-4750z m2942 3623 c299 -404 774 -1046 966 -1306 113 -154 210 -281 217 -283
6 -3 67 6 136 20 567 114 1134 10 1609 -294 163 -105 368 -283 487 -422 l40
-47 574 165 c316 90 776 223 1022 295 442 129 480 137 464 97 -6 -16 -11 -20
-1402 -1076 -126 -96 -239 -183 -251 -194 l-21 -19 24 -92 c42 -161 63 -335
64 -528 0 -270 -28 -452 -107 -689 -125 -378 -360 -726 -659 -977 l-49 -42 83
-303 c449 -1626 488 -1775 470 -1786 -16 -10 -42 20 -212 251 -106 144 -323
438 -482 652 -159 215 -356 481 -438 593 -82 111 -156 202 -164 202 -8 0 -49
-9 -91 -20 -178 -45 -267 -54 -522 -54 -194 0 -266 3 -345 18 -358 65 -653
189 -935 395 -117 85 -302 259 -391 367 l-58 72 -203 -60 c-112 -32 -547 -158
-967 -279 -420 -121 -768 -222 -772 -224 -9 -6 -32 22 -27 34 1 5 138 112 303
237 432 328 890 676 1116 848 l196 149 -23 91 c-164 652 4 1384 438 1901 75
89 240 254 298 297 17 12 30 27 30 33 0 12 -162 601 -424 1544 -164 587 -169
610 -133 611 4 0 66 -80 139 -177z"/>
<path d="M2960 8266 c0 -4 77 -156 171 -339 94 -183 286 -555 427 -827 140
-272 364 -706 497 -965 133 -258 327 -634 430 -835 314 -608 302 -587 309
-554 16 78 136 822 136 844 0 17 -58 102 -171 255 -271 365 -780 1053 -1438
1945 -360 488 -361 488 -361 476z"/>
<path d="M4495 6743 c-56 -5 -258 -41 -283 -50 -19 -8 -18 -12 27 -73 267
-363 545 -737 553 -745 6 -7 14 -3 24 10 37 50 518 624 521 621 2 -1 8 -173
14 -382 6 -208 12 -380 13 -381 1 -1 157 43 346 98 190 55 395 114 455 131 61
17 114 34 118 38 11 9 -177 199 -274 277 -301 244 -660 398 -1042 448 -107 14
-362 18 -472 8z"/>
<path d="M7970 6328 c-102 -55 -392 -212 -645 -348 -253 -136 -604 -326 -780
-420 -176 -95 -493 -266 -705 -380 -709 -381 -971 -523 -968 -526 2 -1 178
-35 391 -74 l388 -72 212 161 c117 88 376 286 577 439 724 551 1170 890 1435
1090 279 211 306 233 290 231 -6 -1 -93 -46 -195 -101z"/>
<path d="M5110 6170 c-102 -123 -207 -249 -233 -281 l-49 -58 72 -100 72 -99
67 19 c36 11 109 31 161 46 52 14 99 30 104 34 10 9 8 218 -3 503 l-6 159
-185 -223z"/>
<path d="M3275 6178 c-186 -179 -321 -362 -431 -583 -169 -344 -242 -741 -203
-1116 11 -109 46 -305 58 -326 5 -9 138 87 431 310 234 178 425 329 425 335 0
6 -144 119 -320 252 -176 133 -327 248 -335 256 -13 14 29 15 370 13 330 -2
385 0 385 12 0 26 -260 949 -267 949 -4 0 -55 -46 -113 -102z"/>
<path d="M3030 5265 c0 -3 129 -102 287 -220 226 -170 289 -213 300 -204 7 7
40 42 73 79 l59 67 -45 141 -45 142 -314 0 c-173 0 -315 -2 -315 -5z"/>
<path d="M6310 4955 c-206 -157 -375 -290 -375 -294 0 -5 136 -127 303 -271
166 -145 302 -267 302 -271 0 -5 -178 -9 -396 -9 l-396 0 5 -22 c71 -273 274
-998 280 -998 14 0 233 223 289 295 196 252 333 535 402 835 67 293 65 651 -5
934 -10 43 -19 80 -19 82 0 13 -54 -25 -390 -281z"/>
<path d="M3635 4793 c-99 -75 -328 -250 -510 -388 -359 -274 -878 -668 -1465
-1113 -206 -157 -379 -290 -385 -295 -12 -12 160 78 455 238 124 67 410 221
635 342 510 274 962 517 1435 773 201 108 460 248 577 310 117 63 211 116 208
118 -2 2 -167 35 -367 73 -200 38 -372 71 -383 73 -15 4 -70 -33 -200 -131z"/>
<path d="M4635 4638 c-2 -7 -38 -197 -79 -422 l-76 -408 93 -127 c133 -179
437 -590 852 -1151 197 -267 472 -639 611 -826 317 -430 395 -534 401 -534 3
0 -46 98 -108 217 -61 120 -221 429 -354 688 -349 678 -577 1120 -835 1620
-125 242 -287 556 -359 698 -73 141 -134 257 -137 257 -3 0 -6 -6 -9 -12z"/>
<path d="M5787 4549 c-59 -43 -107 -85 -107 -93 0 -22 71 -280 79 -289 4 -4
157 -6 339 -5 l333 3 -78 65 c-43 35 -150 128 -237 205 -87 77 -173 152 -191
167 l-32 27 -106 -80z"/>
<path d="M4292 3740 c-57 -16 -106 -31 -108 -33 -2 -2 -3 -164 -2 -360 l3
-356 200 251 c110 138 205 258 211 267 10 13 -4 38 -76 136 -55 76 -94 121
-106 121 -10 1 -66 -11 -122 -26z"/>
<path d="M3602 3550 c-282 -81 -516 -151 -519 -154 -8 -7 85 -113 184 -209
308 -300 718 -500 1154 -562 122 -17 407 -20 529 -4 110 13 282 48 294 59 5 5
-15 42 -50 89 -368 500 -540 729 -546 725 -4 -3 -119 -145 -255 -315 l-248
-311 -3 416 c-2 323 -5 416 -15 415 -6 0 -243 -67 -525 -149z"/>
</g>
</svg>
